<svg width="175" height="175" viewBox="0 0 175 175" fill="none" xmlns="http://www.w3.org/2000/svg">
<circle cx="87.5" cy="87.5" r="87.5" fill="#0F1020"/>
<path d="M124.653 102.006C122.872 102.006 120.857 102.411 118.606 103.221V126H109.786V93.8056H117.598L118.102 96.8428C119.681 95.5874 121.293 94.6763 122.94 94.1093C124.62 93.5019 126.031 93.1982 127.173 93.1982H129.441C131.725 93.1982 133.556 94.0283 134.934 95.6887C136.311 97.349 137 99.5561 137 102.31V126H128.181V104.132C128.181 103.525 128.013 103.018 127.677 102.614C127.341 102.209 126.921 102.006 126.417 102.006H124.653Z" fill="#B095FF"/>
<path d="M109.146 95.0205V126H100.326V103.221H96.5466V95.0205H109.146ZM100.326 82.8717H109.146V91.3759H100.326V82.8717Z" fill="#B095FF"/>
<path d="M82.8469 113.244L87.3825 93.8056H96.9577L88.6424 126H79.3192L74.2796 106.562L69.2401 126H59.9169L51.6016 93.8056H61.1767L65.7124 113.244L70.248 93.8056H78.3113L82.8469 113.244Z" fill="#B095FF"/>
<path d="M104.716 68.1344C102.6 68.1344 100.416 68.7418 98.1649 69.9567V91.5208H89.3457V59.3265H97.157L97.661 63.2749C100.55 60.2377 103.574 58.7191 106.732 58.7191H109V68.1344H104.716Z" fill="#B095FF"/>
<path d="M73.5826 66.3121C72.2387 66.3121 71.5668 67.122 71.5668 68.7418V72.0827H80.1341V68.7418C80.1341 67.122 79.4621 66.3121 78.1182 66.3121H73.5826ZM87.9454 90.9134C81.4612 91.7233 75.5817 92.1283 70.3069 92.1283C68.0223 92.1283 66.1913 91.2981 64.8138 89.6378C63.4363 87.9774 62.7476 85.7704 62.7476 83.0167V68.4381C62.7476 65.4009 63.4531 63.0319 64.8642 61.331C66.3089 59.5897 68.2911 58.7191 70.8109 58.7191H80.89C83.4098 58.7191 85.3752 59.5897 86.7863 61.331C88.231 63.0319 88.9533 65.4009 88.9533 68.4381V79.6758H71.5668V82.1055C71.5668 82.713 71.7348 83.2192 72.0708 83.6241C72.4067 84.0291 72.8267 84.2316 73.3307 84.2316C76.6568 84.2316 81.5284 83.9278 87.9454 83.3204V90.9134Z" fill="#B095FF"/>
<path d="M45.8192 78.7646V91.5208H37V49H45.8192V70.5641H49.8509L55.3944 59.3265H64.7176L57.1583 74.8162L64.7176 91.5208H55.3944L49.5989 78.7646H45.8192Z" fill="#B095FF"/>
</svg>
